#N canvas 615 47 999 898 10;
#X floatatom 327 405 5 0 0 0 - - -;
#X obj 328 462 osc~;
#X obj 329 489 *~;
#X obj 274 640 dac~;
#X obj 299 225 metro;
#X obj 302 273 route 0 1 2;
#X obj 302 248 random 4;
#X obj 369 175 random 4;
#X obj 368 199 * 200;
#X obj 344 91 tgl 15 0 empty empty empty 17 7 0 10 -262144 -1 -1 0
1;
#X obj 364 466 / 2;
#X obj 366 491 *;
#X obj 362 514 osc~;
#X floatatom 292 405 5 0 0 0 - - -;
#X obj 129 504 osc~;
#X obj 135 549 *~;
#X obj 100 230 metro;
#X obj 103 278 route 0 1 2;
#X obj 103 253 random 4;
#X obj 170 180 random 4;
#X obj 169 204 * 200;
#X obj 205 459 / 2;
#X obj 212 490 *;
#X obj 212 521 osc~;
#X obj 334 363 / 4;
#X obj 117 427 line;
#X floatatom 367 405 5 0 0 0 - - -;
#X obj 536 478 osc~;
#X obj 535 527 *~;
#X obj 504 201 metro;
#X obj 507 249 route 0 1 2;
#X obj 507 224 random 4;
#X obj 574 151 random 4;
#X obj 573 175 * 200;
#X obj 581 471 / 2;
#X obj 582 500 *;
#X obj 581 533 osc~;
#X obj 521 398 line;
#X obj 203 237 t f f;
#X obj 607 208 t f f;
#X msg 488 279 440;
#X msg 283 303 440;
#X msg 324 305 524;
#X msg 366 305 660;
#X msg 406 303 880;
#X msg 85 309 440;
#X msg 126 310 500;
#X msg 167 310 660;
#X msg 207 307 880;
#X msg 530 281 524;
#X msg 571 281 660;
#X msg 611 280 880;
#X obj 693 253 metro;
#X obj 729 282 random 3000;
#X obj 687 331 f;
#X obj 686 369 + 1;
#X obj 739 393 t f f;
#X obj 740 414 sel 1;
#X obj 740 436 -1;
#X obj 679 469 line;
#X obj 678 492 + 0.2;
#X obj 521 599 *~;
#X floatatom 681 417 5 0 0 0 - - -;
#X obj 519 568 clip~ -0.5 0.5;
#X floatatom 290 433 5 0 0 0 - - -;
#X floatatom 328 433 5 0 0 0 - - -;
#X floatatom 367 435 5 0 0 0 - - -;
#X floatatom 678 521 5 0 0 0 - - -;
#X connect 0 0 65 0;
#X connect 0 0 10 0;
#X connect 1 0 2 0;
#X connect 2 0 3 0;
#X connect 2 0 3 1;
#X connect 4 0 6 0;
#X connect 4 0 7 0;
#X connect 5 0 41 0;
#X connect 5 1 42 0;
#X connect 5 2 43 0;
#X connect 5 3 44 0;
#X connect 6 0 5 0;
#X connect 7 0 8 0;
#X connect 7 0 11 1;
#X connect 8 0 4 1;
#X connect 9 0 4 0;
#X connect 9 0 2 1;
#X connect 9 0 25 2;
#X connect 9 0 15 1;
#X connect 9 0 16 0;
#X connect 9 0 29 0;
#X connect 9 0 37 2;
#X connect 9 0 28 1;
#X connect 9 0 52 0;
#X connect 9 0 59 2;
#X connect 10 0 11 0;
#X connect 11 0 12 0;
#X connect 11 0 65 0;
#X connect 12 0 2 0;
#X connect 13 0 14 0;
#X connect 13 0 21 0;
#X connect 14 0 15 0;
#X connect 15 0 3 0;
#X connect 15 0 3 1;
#X connect 16 0 18 0;
#X connect 16 0 19 0;
#X connect 17 0 45 0;
#X connect 17 1 46 0;
#X connect 17 2 47 0;
#X connect 17 3 48 0;
#X connect 18 0 17 0;
#X connect 19 0 20 0;
#X connect 19 0 22 1;
#X connect 20 0 38 0;
#X connect 21 0 22 0;
#X connect 22 0 23 0;
#X connect 22 0 64 0;
#X connect 23 0 15 0;
#X connect 24 0 0 0;
#X connect 25 0 13 0;
#X connect 26 0 27 0;
#X connect 26 0 34 0;
#X connect 27 0 28 0;
#X connect 28 0 63 0;
#X connect 29 0 31 0;
#X connect 29 0 32 0;
#X connect 30 0 40 0;
#X connect 30 1 49 0;
#X connect 30 2 50 0;
#X connect 30 3 51 0;
#X connect 31 0 30 0;
#X connect 32 0 33 0;
#X connect 32 0 35 1;
#X connect 33 0 39 0;
#X connect 34 0 35 0;
#X connect 35 0 36 0;
#X connect 35 0 66 0;
#X connect 36 0 28 0;
#X connect 37 0 26 0;
#X connect 38 0 16 1;
#X connect 38 1 25 1;
#X connect 39 0 29 1;
#X connect 39 1 37 1;
#X connect 40 0 37 0;
#X connect 41 0 24 0;
#X connect 42 0 24 0;
#X connect 43 0 24 0;
#X connect 44 0 24 0;
#X connect 45 0 25 0;
#X connect 46 0 25 0;
#X connect 47 0 25 0;
#X connect 48 0 25 0;
#X connect 49 0 37 0;
#X connect 50 0 37 0;
#X connect 51 0 37 0;
#X connect 52 0 53 0;
#X connect 52 0 54 0;
#X connect 53 0 52 1;
#X connect 53 0 59 1;
#X connect 54 0 55 0;
#X connect 55 0 56 0;
#X connect 55 0 62 0;
#X connect 56 0 57 0;
#X connect 56 1 54 1;
#X connect 57 0 58 0;
#X connect 58 0 54 1;
#X connect 59 0 60 0;
#X connect 60 0 67 0;
#X connect 61 0 3 0;
#X connect 61 0 3 1;
#X connect 62 0 59 0;
#X connect 63 0 61 0;
#X connect 65 0 1 0;
#X connect 67 0 61 1;
